<?xml version="1.0" ?>
<svg viewBox="0 0 64 64" 
    xmlns="http://www.w3.org/2000/svg">
    <g id="a"/>
    <g id="b"/>
    <g id="c"/>
    <g id="d"/>
    <g id="e"/>
    <g id="f"/>
    <g id="g"/>
    <g id="h"/>
    <g id="i"/>
    <g id="j"/>
    <g id="k"/>
    <g id="l"/>
    <g id="m"/>
    <g id="n"/>
    <g id="o"/>
    <g id="p"/>
    <g id="q"/>
    <g id="r"/>
    <g id="s"/>
    <g id="t"/>
    <g id="u"/>
    <g id="v"/>
    <g id="w"/>
    <g id="x"/>
    <g id="y"/>
    <g id="a`"/>
    <g id="aa"/>
    <g id="ab"/>
    <g id="ac"/>
    <g id="ad"/>
    <g id="ae"/>
    <g id="af"/>
    <g id="ag"/>
    <g id="ah">
        <path d="M15.1,53.48l1.76-3.48h0l9.35-18.52-6.51,2.11-7.29,6.26c-.23,.38-.31,.82-.23,1.25l2.65,11.53c.07,.3,.16,.58,.28,.87Z" fill="#8598ab" id="ai"/>
        <path d="M16.01,6.51l2.96,.84,.34,2.28,.11,2.2-3.05,1.04-1.71-1.55c-.44-.4-.58-1.04-.35-1.59l1.06-2.52c.13-.29,.35-.54,.63-.69h0Z" fill="#d7e5eb" id="aj"/>
        <path d="M16.01,6.51l2.07,6.06,2.55-2.9-4.62-3.15Z" fill="#c0d8df" id="ak"/>
        <path d="M22.84,5.74l-1.11,3.76-2.41,.12-3.3-3.11c.23-.14,.49-.22,.76-.23h5.58l.5-.54Z" fill="#e2eef2" id="al"/>
        <path d="M47.14,50l-9.35-18.52-5.71-2.02-5.89,2.02-9.35,18.52,15.15,3.39,15.13-3.39Z" fill="#d7e5eb" id="am"/>
        <path d="M26.2,31.48l-13.52,11.88-.52-2.26c-.09-.4-.04-.82,.14-1.2l7.24-5.62,6.65-2.8Z" fill="#758797" id="an"/>
        <path d="M12.4,39.84l13.81-8.37-1.95-1.25-3.67,1.25-7.93,7.93c-.1,.13-.19,.28-.25,.43Z" fill="#9dacb9" id="ao"/>
        <path d="M26.27,59l1.62-3.03-3.45-5.97h-7.58l-1.76,3.48c.13,.33,.29,.65,.49,.95l2.4,3.72c.34,.52,.92,.84,1.54,.84h6.74Z" fill="#f0f4f6" id="ap"/>
        <path d="M26.2,31.48l-9.35,18.52,2.64,.59,6.71-19.11Z" fill="#c0d8df" id="aq"/>
        <path d="M16.86,50l-1.76,3.48c.13,.33,.29,.65,.49,.95l1.66,2.57,2.46-7h-2.84Z" fill="#e2eef2" id="ar"/>
        <path d="M37.8,31.48l9.35,18.52-2.64,.59-6.71-19.11Z" fill="#c0d8df" id="as"/>
        <path d="M47.14,50l1.76,3.48c-.13,.33-.29,.65-.49,.95l-1.66,2.57-2.46-7h2.84Z" fill="#e2eef2" id="at"/>
        <path d="M37.73,59l-1.62-3.03,3.45-5.97h2.98v-2.58l-5.27-5.66h-10.54l-5.27,5.66v2.58h2.98l3.45,5.97-1.62,3.03h11.47Z" fill="#8598ab" id="au"/>
        <path d="M48.9,53.48l-1.76-3.48h-7.58l-3.45,5.97,1.62,3.03h6.73c.62,0,1.21-.32,1.54-.84l2.4-3.72c.19-.3,.36-.62,.49-.95Z" fill="#f0f4f6" id="av"/>
        <path d="M51.69,39.9l-7.24-5.62-6.65-2.8,9.35,18.52h0l1.76,3.48c.12-.28,.21-.57,.28-.87l2.65-11.53c.09-.4,.04-.82-.14-1.2Z" fill="#8598ab" id="aw"/>
        <path d="M37.8,31.48l13.52,11.88,.52-2.26c.09-.4,.04-.82-.14-1.2l-7.24-5.62-6.65-2.8Z" fill="#758797" id="ax"/>
        <path d="M43.42,31.48l-3-1.64-2.62,1.64,13.9,8.42c-.09-.18-.2-.34-.34-.49l-7.93-7.93Z" fill="#9dacb9" id="ay"/>
        <path d="M24.34,19.38l-6.65,5.11,2.89,6.99h22.84l.21-.21,2.87-6.78-6.65-5.12h-15.5Z" fill="#f9fbfc" id="b`"/>
        <path d="M38.58,20.21l5.56,4.28,.36-4.82-2.32-2.4-3.6,2.95Z" fill="#9dacb9" id="ba"/>
        <path d="M20.05,24.49l5.56-4.28-3.6-2.95-2.32,2.4,.36,4.82Z" fill="#9dacb9" id="bb"/>
        <path d="M47.99,6.51l-2.96,.84-.34,2.28-.11,2.2,3.05,1.04,1.71-1.55c.44-.4,.58-1.04,.35-1.59l-1.06-2.52c-.13-.29-.35-.54-.63-.69h0Z" fill="#d7e5eb" id="bc"/>
        <path d="M47.99,6.51l-2.07,6.06-2.55-2.9,4.62-3.15Z" fill="#c0d8df" id="bd"/>
        <path d="M41.16,5.74l1.11,3.76,2.41,.12,3.3-3.11c-.23-.14-.49-.22-.76-.23h-5.58l-.5-.54Z" fill="#e2eef2" id="be"/>
        <path d="M22.84,5.74h0l-.49,.55-2.99,3.29-2.99,3.29h0l-.48,.52-.11,.12h0c-.43,.48-.67,1.1-.67,1.74v9.75c0,.64,.25,1.25,.71,1.71l4.77,4.77-.53-6.99h0l-.36-4.82,2.32-2.4,3.6,2.95h0l6.48,5.31,6.48-5.31h0l3.6-2.95,2.32,2.4-.36,4.82h0l-.51,6.78,4.56-4.56c.45-.45,.71-1.07,.71-1.71V15.25c0-.64-.24-1.26-.67-1.74l-.58-.64-2.94-3.24-3.53-3.89h0c-.43-.47-1.03-.74-1.67-.74h-14.98c-.63,0-1.24,.27-1.67,.74h0Z" fill="#f0f4f6" id="bf"/>
    </g>
    <g id="bg"/>
    <g id="bh"/>
    <g id="bi"/>
    <g id="bj"/>
    <g id="bk"/>
    <g id="bl"/>
    <g id="bm"/>
    <g id="bn"/>
    <g id="bo"/>
    <g id="bp"/>
    <g id="bq"/>
    <g id="br"/>
    <g id="bs"/>
    <g id="bt"/>
    <g id="bu"/>
    <g id="bv"/>
</svg>