<svg version="1.0"
    xmlns="http://www.w3.org/2000/svg" width="1024.000000pt" height="1024.000000pt" viewBox="0 0 1024.000000 1024.000000" preserveAspectRatio="xMidYMid meet">

    <g transform="translate(0.000000,1024.000000) scale(0.100000,-0.100000)" fill="#000000" stroke="none">
        <path d="M0 5120 l0 -5120 5120 0 5120 0 0 5120 0 5120 -5120 0 -5120 0 0
-5120z m5685 3576 c490 -75 937 -236 1331 -477 295 -181 579 -426 792 -684
309 -373 571 -879 687 -1324 31 -122 76 -381 91 -536 27 -265 11 -636 -40
-930 -56 -319 -194 -725 -333 -979 -187 -340 -347 -559 -587 -805 -266 -270
-482 -431 -799 -592 -515 -262 -979 -383 -1552 -405 -515 -19 -1122 116 -1610
359 -625 311 -1070 719 -1413 1297 -278 470 -428 968 -463 1545 -43 691 144
1409 524 2020 124 199 297 414 463 575 200 193 375 327 614 468 487 288 985
445 1545 486 129 9 655 -3 750 -18z"/>
        <path d="M4955 8409 c-346 -32 -799 -148 -1065 -272 -383 -178 -749 -441 -989
-710 -377 -423 -657 -992 -746 -1514 -51 -300 -61 -736 -24 -1018 21 -163 89
-424 158 -614 42 -116 124 -260 176 -311 l43 -43 8 49 c9 60 -12 181 -61 354
-80 283 -117 576 -117 940 0 265 13 451 46 621 22 114 83 334 117 418 75 189
226 439 356 590 193 227 378 363 616 455 224 87 411 116 603 96 211 -23 349
-62 522 -149 160 -80 265 -160 492 -371 128 -119 229 -217 873 -847 258 -254
283 -275 360 -313 101 -49 165 -62 245 -50 126 21 203 61 286 150 126 137 138
202 124 689 -5 210 -5 325 2 345 6 20 28 43 57 63 88 58 113 66 194 67 69 0
85 -4 160 -41 154 -74 255 -169 368 -343 96 -147 170 -347 197 -532 21 -141
14 -377 -15 -513 -100 -474 -423 -877 -857 -1068 -99 -43 -248 -91 -334 -108
-86 -16 -310 -17 -385 -1 -175 38 -374 121 -524 222 -112 75 -289 239 -571
530 -538 556 -865 881 -930 925 -158 109 -347 123 -503 38 -99 -54 -198 -194
-232 -328 -40 -159 2 -394 116 -642 143 -310 439 -681 769 -960 193 -164 403
-301 587 -384 437 -197 623 -246 1008 -265 153 -7 373 7 495 32 109 22 392
119 485 165 122 61 323 183 416 254 235 176 462 468 645 827 183 360 192 840
28 1410 -46 162 -80 244 -180 438 -183 354 -436 692 -689 923 -201 184 -373
307 -600 431 -309 167 -647 278 -1036 340 -209 34 -492 44 -694 25z"/>
    </g>
</svg>